<svg width="380" height="275" viewBox="0 0 380 275" fill="none" xmlns="http://www.w3.org/2000/svg">
<g clip-path="url(#clip0_6_5)">
<path d="M1.32281 206.901C-0.605074 206.901 -2.53693 206.98 -4.42353 207.141L-4.69809 207.164C-17.2119 208.27 -26.3653 214.688 -25.9888 222.093L-25.916 223.432C-25.868 224.278 -25.8169 225.188 -25.7748 226.198C-25.752 226.696 -25.0726 227.078 -24.2273 227.078H283.583C305.285 226.946 326.909 226.78 347.849 226.585C351.777 226.593 355.702 226.39 359.607 225.976C365.427 225.287 369.466 223.922 371.957 221.802H371.958C375.055 219.173 375.152 215.863 374.965 212.123C374.584 204.571 374.205 196.638 373.828 188.729C373.494 181.758 373.162 174.806 372.83 168.15C372.625 164.2 372.168 160.714 368.651 158.049C364.838 155.168 357.885 153.707 347.984 153.707C347.864 153.707 347.746 153.707 347.624 153.707C316.596 153.818 285.851 164.487 271.12 180.256C269.424 182.072 267.844 184.016 266.315 185.897C264.056 188.675 261.721 191.546 258.935 194.115C257.426 195.524 255.794 196.796 254.059 197.915C253.94 197.998 253.803 198.086 253.658 198.17C253.327 198.386 252.981 198.594 252.643 198.779C250.667 199.921 248.585 200.868 246.426 201.606L246.208 201.679C246.044 201.738 245.866 201.797 245.688 201.85C244.441 202.251 243.146 202.597 241.848 202.877C236.233 204.114 229.848 204.411 222.872 203.757C216.465 203.142 210.141 201.853 204.004 199.913C197.544 197.871 191.497 195.325 185.649 192.864C183.08 191.782 180.423 190.664 177.77 189.604C177.271 189.405 176.781 189.21 176.283 189.015C173.042 187.752 170.104 186.709 167.301 185.826C160.356 183.631 153.167 182.299 145.897 181.862C138.18 181.439 131.379 182.236 125.689 184.225C124.12 184.771 122.592 185.429 121.118 186.194C114.378 189.694 110.223 194.86 106.205 199.856C101.207 206.07 96.0382 212.495 85.8326 215.826C74.0563 219.674 56.8669 218.075 44.7055 215.296C40.882 214.422 37.0631 213.416 33.3698 212.444C31.8781 212.051 30.3854 211.66 28.8917 211.273C25.9564 210.515 23.5541 209.934 21.3315 209.444L20.6286 209.288C20.2376 209.203 19.8462 209.118 19.4477 209.037C16.8078 208.483 14.3496 208.047 11.9288 207.704L11.3561 207.62C10.2078 207.469 9.13432 207.343 8.08089 207.237L7.66038 207.195C5.59716 206.999 3.46195 206.901 1.32281 206.901Z" fill="#F2F2F2"/>
<path d="M319.617 215.165C328.278 207.36 341.161 203.436 351.967 207.812C340.882 213.967 332.331 223.844 327.828 235.695C326.107 240.273 324.67 245.542 320.439 247.993C317.806 249.518 314.53 249.592 311.578 248.856C308.626 248.12 305.92 246.644 303.251 245.184L302.492 245.166C305.901 234.017 310.956 222.97 319.617 215.165Z" fill="#E6E6E6"/>
<path d="M351.907 208.049C342.336 209.286 333.398 213.507 326.363 220.113C324.823 221.508 323.513 223.137 322.481 224.94C321.532 226.729 321.079 228.74 321.17 230.763C321.217 232.651 321.483 234.577 321.07 236.443C320.844 237.396 320.42 238.289 319.825 239.066C319.23 239.843 318.477 240.485 317.616 240.951C315.501 242.166 313.076 242.55 310.691 242.842C308.043 243.166 305.287 243.462 302.995 244.947C302.717 245.127 302.454 244.685 302.731 244.506C306.719 241.922 311.766 242.862 316.054 241.137C318.055 240.332 319.826 238.92 320.452 236.784C321 234.916 320.727 232.93 320.663 231.019C320.546 229.047 320.913 227.076 321.733 225.278C322.67 223.428 323.915 221.751 325.415 220.319C328.741 217.041 332.561 214.306 336.736 212.215C341.487 209.802 346.617 208.219 351.902 207.535C352.229 207.493 352.232 208.007 351.907 208.049Z" fill="white"/>
<path d="M328.503 217.853C327.555 216.522 327.111 214.897 327.25 213.269C327.389 211.641 328.102 210.116 329.263 208.965C329.498 208.733 329.87 209.088 329.634 209.32C328.552 210.39 327.887 211.811 327.761 213.327C327.634 214.844 328.054 216.355 328.944 217.589C329.137 217.858 328.695 218.119 328.503 217.853Z" fill="white"/>
<path d="M321.02 229.809C324.309 230.392 327.697 229.713 330.508 227.909C330.786 227.73 331.049 228.172 330.771 228.35C327.842 230.222 324.315 230.921 320.894 230.307C320.568 230.248 320.696 229.75 321.02 229.809Z" fill="white"/>
<path d="M341.529 210.482C341.789 211.073 342.191 211.591 342.7 211.988C343.209 212.386 343.809 212.65 344.445 212.759C344.772 212.813 344.644 213.311 344.32 213.257C343.617 213.134 342.955 212.841 342.391 212.403C341.828 211.965 341.381 211.396 341.088 210.745C341.055 210.686 341.046 210.617 341.063 210.551C341.079 210.486 341.12 210.429 341.177 210.393C341.235 210.358 341.305 210.348 341.371 210.365C341.437 210.382 341.494 210.424 341.529 210.482Z" fill="white"/>
<path d="M363.867 245.451C363.662 245.423 363.457 245.395 363.249 245.369C360.492 245.004 357.71 244.862 354.93 244.947C354.715 244.95 354.497 244.956 354.282 244.966C347.587 245.241 341.001 246.757 334.859 249.437C332.416 250.505 330.058 251.758 327.805 253.184C324.694 255.154 321.477 257.538 317.999 258.341C317.637 258.429 317.27 258.494 316.9 258.537L302.53 246.094C302.511 246.049 302.49 246.008 302.471 245.963L301.875 245.493C301.986 245.411 302.103 245.329 302.214 245.247C302.278 245.199 302.346 245.154 302.41 245.107C302.454 245.076 302.498 245.045 302.535 245.015C302.55 245.004 302.565 244.994 302.576 244.987C302.614 244.957 302.653 244.933 302.687 244.905C303.34 244.443 303.997 243.985 304.658 243.531C304.661 243.528 304.661 243.528 304.667 243.527C309.671 240.016 315.075 237.112 320.764 234.874C320.935 234.81 321.108 234.742 321.285 234.683C323.847 233.73 326.483 232.989 329.166 232.466C330.636 232.184 332.119 231.977 333.61 231.845C337.463 231.512 341.344 231.787 345.112 232.66C352.622 234.401 359.492 238.525 363.561 244.957C363.665 245.121 363.765 245.283 363.867 245.451Z" fill="#E6E6E6"/>
<path d="M363.676 245.606C355.29 240.831 345.612 238.82 336.018 239.859C333.949 240.045 331.922 240.557 330.012 241.375C328.177 242.233 326.605 243.565 325.46 245.235C324.36 246.771 323.413 248.469 321.96 249.711C321.206 250.335 320.329 250.794 319.387 251.055C318.444 251.317 317.456 251.377 316.488 251.23C314.068 250.927 311.9 249.773 309.82 248.571C307.51 247.235 305.133 245.812 302.408 245.618C302.078 245.594 302.134 245.084 302.463 245.107C307.203 245.445 310.667 249.234 315.129 250.439C317.211 251.001 319.475 250.939 321.262 249.611C322.824 248.45 323.801 246.699 324.901 245.135C325.995 243.489 327.475 242.137 329.211 241.195C331.074 240.282 333.078 239.693 335.137 239.453C339.766 238.837 344.463 238.954 349.055 239.798C354.302 240.732 359.35 242.556 363.982 245.192C364.269 245.356 363.961 245.768 363.676 245.606Z" fill="white"/>
<path d="M339.088 239.342C339.132 237.709 339.755 236.144 340.847 234.928C341.938 233.712 343.426 232.924 345.045 232.703C345.373 232.66 345.456 233.167 345.128 233.211C343.62 233.413 342.233 234.148 341.22 235.282C340.206 236.417 339.631 237.876 339.599 239.398C339.591 239.728 339.08 239.671 339.088 239.342Z" fill="white"/>
<path d="M325.914 244.383C328.19 246.829 331.303 248.327 334.634 248.579C334.964 248.603 334.908 249.114 334.578 249.09C331.113 248.821 327.876 247.255 325.514 244.705C325.289 244.462 325.691 244.141 325.914 244.383Z" fill="white"/>
<path d="M353.926 241.3C353.777 241.928 353.787 242.584 353.954 243.207C354.121 243.831 354.441 244.404 354.884 244.873C355.112 245.114 354.71 245.434 354.483 245.196C353.996 244.674 353.644 244.042 353.458 243.353C353.272 242.664 353.257 241.94 353.415 241.244C353.425 241.177 353.459 241.117 353.512 241.074C353.564 241.032 353.631 241.011 353.698 241.017C353.766 241.024 353.828 241.058 353.87 241.111C353.913 241.164 353.933 241.232 353.926 241.3Z" fill="white"/>
<path d="M92.8847 222.928C99.9768 212.17 112.664 204.389 125.439 206.064C115.295 215.73 108.898 228.672 107.378 242.601C106.811 247.975 106.741 254.011 102.897 257.809C100.505 260.172 97.0223 261.163 93.6602 261.197C90.298 261.231 86.9933 260.406 83.7324 259.586L82.9155 259.779C83.4599 246.906 85.7925 233.685 92.8847 222.928Z" fill="#E6E6E6"/>
<path d="M125.44 206.334C115.548 210.319 107.163 217.32 101.476 226.342C100.218 228.263 99.2696 230.37 98.667 232.586C98.1497 234.763 98.225 237.039 98.8849 239.178C99.4602 241.184 100.281 243.17 100.359 245.281C100.382 246.362 100.177 247.436 99.7564 248.433C99.3359 249.429 98.7095 250.325 97.9182 251.063C95.9945 252.951 93.507 254.036 91.0375 255.012C88.2956 256.096 85.4305 257.178 83.3921 259.404C83.1452 259.674 82.741 259.275 82.9877 259.006C86.5341 255.132 92.193 254.734 96.2996 251.697C98.2158 250.279 99.7165 248.276 99.7926 245.817C99.8591 243.667 99.0144 241.619 98.4144 239.592C97.74 237.516 97.5844 235.305 97.9612 233.155C98.449 230.915 99.3144 228.776 100.52 226.827C103.165 222.396 106.49 218.408 110.373 215.01C114.784 211.107 119.829 207.987 125.292 205.786C125.63 205.649 125.776 206.199 125.44 206.334Z" fill="white"/>
<path d="M103.136 223.33C101.752 222.17 100.825 220.556 100.521 218.776C100.217 216.996 100.556 215.166 101.476 213.613C101.664 213.299 102.16 213.575 101.972 213.89C101.112 215.335 100.797 217.039 101.084 218.696C101.37 220.353 102.24 221.853 103.535 222.925C103.816 223.158 103.416 223.562 103.136 223.33Z" fill="white"/>
<path d="M98.4592 238.199C102.139 237.907 105.574 236.239 108.078 233.528C108.326 233.259 108.73 233.658 108.483 233.926C105.871 236.743 102.293 238.472 98.4634 238.767C98.0983 238.795 98.0962 238.227 98.4592 238.199Z" fill="white"/>
<path d="M115.018 211.822C115.46 212.383 116.034 212.824 116.689 213.108C117.344 213.391 118.059 213.508 118.77 213.446C119.135 213.414 119.136 213.982 118.774 214.014C117.988 214.078 117.199 213.949 116.474 213.637C115.75 213.326 115.113 212.841 114.619 212.227C114.568 212.173 114.539 212.101 114.538 212.027C114.538 211.952 114.565 211.88 114.616 211.825C114.669 211.772 114.741 211.742 114.816 211.741C114.891 211.741 114.964 211.77 115.018 211.822Z" fill="white"/>
<path d="M148.637 243.009C148.41 243.036 148.183 243.062 147.953 243.093C144.903 243.469 141.888 244.092 138.938 244.956C138.709 245.019 138.478 245.086 138.251 245.156C131.167 247.313 124.545 250.767 118.721 255.341C116.405 257.164 114.232 259.16 112.219 261.312C109.439 264.284 106.662 267.729 103.166 269.555C102.803 269.75 102.429 269.922 102.045 270.071L83.2142 260.76C83.182 260.718 83.1475 260.679 83.1151 260.637L82.3463 260.299C82.4423 260.181 82.5445 260.06 82.6405 259.942C82.696 259.873 82.7556 259.807 82.811 259.738C82.8493 259.693 82.8878 259.647 82.9198 259.604C82.9325 259.589 82.9454 259.574 82.9559 259.564C82.9879 259.521 83.0222 259.484 83.052 259.445C83.6212 258.77 84.1962 258.097 84.7769 257.427C84.779 257.423 84.779 257.423 84.7853 257.42C89.223 252.327 94.1249 247.56 99.5946 243.688C99.7592 243.571 99.9257 243.45 100.099 243.338C102.574 241.607 105.187 240.08 107.91 238.774C109.404 238.064 110.933 237.43 112.491 236.874C116.519 235.446 120.747 234.66 125.019 234.546C133.536 234.319 142.031 236.818 148.172 242.565C148.329 242.712 148.482 242.858 148.637 243.009Z" fill="#E6E6E6"/>
<path d="M148.476 243.227C138.178 240.453 127.269 240.995 117.296 244.775C115.135 245.551 113.109 246.662 111.294 248.068C109.57 249.495 108.26 251.358 107.499 253.463C106.751 255.411 106.21 257.491 105.001 259.223C104.369 260.101 103.559 260.835 102.623 261.377C101.687 261.92 100.648 262.258 99.5718 262.37C96.8989 262.72 94.2597 262.088 91.7002 261.381C88.8585 260.595 85.9192 259.735 82.9513 260.285C82.5917 260.352 82.5093 259.79 82.8683 259.723C88.032 258.766 92.7901 261.855 97.8978 261.902C100.281 261.924 102.686 261.228 104.227 259.311C105.574 257.634 106.133 255.49 106.874 253.511C107.586 251.447 108.792 249.588 110.388 248.098C112.126 246.604 114.105 245.416 116.241 244.586C121.021 242.64 126.076 241.458 131.223 241.083C137.094 240.622 143.001 241.169 148.688 242.7C149.04 242.795 148.826 243.321 148.476 243.227Z" fill="white"/>
<path d="M120.436 243.369C120.028 241.61 120.26 239.763 121.089 238.159C121.918 236.554 123.29 235.297 124.96 234.611C125.299 234.473 125.528 234.993 125.189 235.13C123.633 235.766 122.355 236.938 121.586 238.433C120.817 239.929 120.609 241.65 120.997 243.286C121.081 243.641 120.519 243.722 120.436 243.369Z" fill="white"/>
<path d="M107.749 252.425C110.862 254.408 114.609 255.144 118.241 254.487C118.601 254.421 118.684 254.983 118.324 255.048C114.543 255.725 110.646 254.951 107.41 252.881C107.102 252.683 107.442 252.229 107.749 252.425Z" fill="white"/>
<path d="M136.85 241.334C136.866 242.048 137.058 242.746 137.411 243.367C137.763 243.988 138.264 244.511 138.868 244.89C139.179 245.084 138.838 245.538 138.53 245.346C137.864 244.924 137.311 244.345 136.921 243.66C136.53 242.976 136.313 242.205 136.288 241.417C136.28 241.343 136.3 241.269 136.344 241.209C136.389 241.149 136.454 241.108 136.528 241.095C136.602 241.084 136.678 241.103 136.738 241.148C136.798 241.193 136.839 241.26 136.85 241.334Z" fill="white"/>
<path d="M143.359 142.279C143.83 141.81 144.192 141.245 144.42 140.621C144.649 139.998 144.738 139.332 144.681 138.671C144.624 138.01 144.423 137.369 144.091 136.793C143.76 136.218 143.307 135.723 142.763 135.342L150.175 99.4698L142.178 101.993L136.215 136.696C135.635 137.651 135.427 138.786 135.628 139.886C135.829 140.985 136.427 141.972 137.307 142.66C138.188 143.349 139.29 143.69 140.406 143.619C141.521 143.549 142.572 143.072 143.359 142.279Z" fill="#FFB6B6"/>
<path d="M160.492 46.3917L155.538 42.6526C155.538 42.6526 151.168 42.3431 150.394 50.2235C149.62 58.1039 144.775 88.3487 144.775 88.3487L137.195 123.456L147.687 125.759L155.806 87.8721L163.933 61.734L160.492 46.3917Z" fill="#E6E6E6"/>
<path d="M156.718 111.353L132.957 92.8769C132.586 92.5884 132.346 92.165 132.288 91.6994C132.229 91.2338 132.358 90.7641 132.646 90.3933L148.813 69.6011C149.101 69.231 149.525 68.9905 149.99 68.9322C150.456 68.874 150.926 69.0028 151.296 69.2904L175.058 87.766C175.428 88.0545 175.668 88.4779 175.727 88.9435C175.785 89.4091 175.656 89.8788 175.368 90.2496L159.201 111.042C158.913 111.412 158.49 111.652 158.024 111.711C157.558 111.769 157.089 111.64 156.718 111.353Z" fill="#3F3D56"/>
<path d="M156.587 109.441L134.842 92.5323C134.513 92.2762 134.299 91.9002 134.248 91.4868C134.196 91.0734 134.31 90.6564 134.566 90.3272L149.222 71.4781C149.478 71.1495 149.854 70.9359 150.267 70.8842C150.681 70.8325 151.098 70.9468 151.427 71.2022L173.173 88.1106C173.501 88.3667 173.715 88.7427 173.766 89.1561C173.818 89.5695 173.704 89.9865 173.448 90.3157L158.792 109.165C158.536 109.493 158.16 109.707 157.747 109.759C157.334 109.81 156.916 109.696 156.587 109.441Z" fill="white"/>
<path d="M137.692 92.0528C137.61 91.9888 137.557 91.8948 137.544 91.7915C137.531 91.6881 137.56 91.5839 137.624 91.5016L145.017 81.9928C145.081 81.9106 145.175 81.8571 145.278 81.8442C145.33 81.8377 145.382 81.8415 145.431 81.8552C145.481 81.8688 145.528 81.8922 145.568 81.9238C145.609 81.9555 145.643 81.9949 145.669 82.0397C145.694 82.0845 145.711 82.134 145.717 82.1852C145.723 82.2363 145.72 82.2883 145.706 82.338C145.692 82.3878 145.669 82.4343 145.637 82.4751L138.244 91.9839C138.18 92.066 138.086 92.1194 137.982 92.1323C137.879 92.1453 137.775 92.1167 137.692 92.0528Z" fill="#E4E4E4"/>
<path d="M138.918 93.0057C138.836 92.9416 138.782 92.8476 138.769 92.7443C138.756 92.6409 138.785 92.5367 138.849 92.4544L146.242 82.9456C146.306 82.8633 146.4 82.8099 146.504 82.7969C146.607 82.784 146.711 82.8126 146.794 82.8766C146.876 82.9406 146.929 83.0346 146.942 83.138C146.955 83.2413 146.927 83.3456 146.863 83.4279L139.469 92.9367C139.405 93.0188 139.311 93.0722 139.208 93.0852C139.104 93.0981 139 93.0695 138.918 93.0057Z" fill="#E4E4E4"/>
<path d="M144.332 88.5715C144.25 88.5075 144.196 88.4135 144.183 88.3101C144.171 88.2068 144.199 88.1025 144.263 88.0202L147.468 83.8984C147.5 83.8576 147.539 83.8234 147.584 83.7978C147.629 83.7722 147.678 83.7557 147.729 83.7493C147.781 83.7428 147.833 83.7465 147.882 83.7602C147.932 83.7739 147.979 83.7972 148.02 83.8289C148.06 83.8606 148.094 83.9 148.12 83.9449C148.145 83.9898 148.162 84.0393 148.168 84.0906C148.175 84.1418 148.171 84.1938 148.157 84.2436C148.143 84.2934 148.12 84.34 148.088 84.3807L144.883 88.5025C144.819 88.5847 144.725 88.6381 144.622 88.651C144.518 88.6639 144.414 88.6354 144.332 88.5715Z" fill="#E4E4E4"/>
<path d="M145.984 96.6601C145.902 96.5961 145.849 96.5021 145.836 96.3988C145.823 96.2954 145.851 96.1912 145.915 96.1089L157.587 81.0975C157.619 81.0567 157.658 81.0227 157.703 80.9972C157.748 80.9716 157.797 80.9552 157.849 80.9488C157.9 80.9424 157.952 80.9462 158.002 80.9598C158.051 80.9735 158.098 80.9968 158.139 81.0285C158.179 81.0602 158.213 81.0995 158.239 81.1444C158.264 81.1892 158.281 81.2386 158.287 81.2898C158.294 81.341 158.29 81.393 158.276 81.4427C158.263 81.4924 158.239 81.539 158.208 81.5797L146.535 96.5912C146.471 96.6733 146.377 96.7267 146.274 96.7396C146.171 96.7526 146.066 96.724 145.984 96.6601Z" fill="#E4E4E4"/>
<path d="M147.21 97.613C147.127 97.549 147.074 97.455 147.061 97.3516C147.048 97.2483 147.077 97.144 147.141 97.0617L158.813 82.0503C158.844 82.0095 158.884 81.9755 158.929 81.9499C158.973 81.9244 159.023 81.908 159.074 81.9016C159.125 81.8952 159.177 81.8989 159.227 81.9126C159.277 81.9263 159.323 81.9496 159.364 81.9813C159.405 82.0129 159.439 82.0523 159.464 82.0972C159.49 82.142 159.506 82.1914 159.513 82.2426C159.519 82.2938 159.515 82.3458 159.502 82.3955C159.488 82.4453 159.465 82.4918 159.433 82.5326L147.761 97.544C147.697 97.6261 147.603 97.6795 147.499 97.6925C147.396 97.7054 147.292 97.6768 147.21 97.613Z" fill="#E4E4E4"/>
<path d="M149.991 99.7758C149.909 99.7118 149.856 99.6178 149.843 99.5145C149.83 99.4111 149.858 99.3069 149.922 99.2246L161.594 84.2132C161.626 84.1724 161.665 84.1383 161.71 84.1128C161.755 84.0873 161.805 84.0709 161.856 84.0645C161.907 84.0581 161.959 84.0618 162.009 84.0755C162.058 84.0892 162.105 84.1125 162.146 84.1442C162.186 84.1758 162.22 84.2152 162.246 84.2601C162.271 84.3049 162.288 84.3543 162.294 84.4055C162.301 84.4567 162.297 84.5086 162.283 84.5584C162.27 84.6081 162.246 84.6547 162.215 84.6954L150.542 99.7068C150.478 99.789 150.384 99.8424 150.281 99.8553C150.178 99.8682 150.073 99.8397 149.991 99.7758Z" fill="#E4E4E4"/>
<path d="M151.217 100.729C151.134 100.665 151.081 100.571 151.068 100.467C151.055 100.364 151.084 100.26 151.148 100.177L162.82 85.1659C162.851 85.1252 162.891 85.0911 162.936 85.0656C162.98 85.0401 163.03 85.0237 163.081 85.0173C163.132 85.0109 163.184 85.0146 163.234 85.0283C163.284 85.042 163.33 85.0653 163.371 85.097C163.412 85.1286 163.446 85.168 163.471 85.2128C163.497 85.2577 163.513 85.3071 163.52 85.3583C163.526 85.4095 163.522 85.4614 163.509 85.5112C163.495 85.5609 163.472 85.6075 163.44 85.6482L151.768 100.66C151.704 100.742 151.61 100.795 151.506 100.808C151.403 100.821 151.299 100.792 151.217 100.729Z" fill="#E4E4E4"/>
<path d="M153.998 102.892C153.916 102.828 153.863 102.734 153.85 102.63C153.837 102.527 153.865 102.423 153.929 102.34L165.601 87.3289C165.633 87.2881 165.672 87.2541 165.717 87.2286C165.762 87.203 165.812 87.1866 165.863 87.1802C165.914 87.1738 165.966 87.1775 166.016 87.1912C166.065 87.2049 166.112 87.2282 166.153 87.2599C166.193 87.2916 166.227 87.3309 166.253 87.3758C166.278 87.4206 166.295 87.47 166.301 87.5212C166.308 87.5724 166.304 87.6244 166.29 87.6741C166.277 87.7238 166.253 87.7704 166.222 87.8111L154.55 102.823C154.485 102.905 154.391 102.958 154.288 102.971C154.185 102.984 154.081 102.955 153.998 102.892Z" fill="#E4E4E4"/>
<path d="M155.224 103.844C155.141 103.78 155.088 103.686 155.075 103.583C155.062 103.48 155.091 103.375 155.155 103.293L166.827 88.2816C166.891 88.1998 166.985 88.1466 167.088 88.1339C167.191 88.1211 167.295 88.1498 167.377 88.2136C167.459 88.2775 167.513 88.3712 167.526 88.4744C167.539 88.5775 167.511 88.6816 167.447 88.7639L155.775 103.775C155.711 103.857 155.617 103.911 155.514 103.924C155.41 103.937 155.306 103.908 155.224 103.844Z" fill="#E4E4E4"/>
<path d="M135.716 121.278C135.805 121.278 135.877 121.206 135.877 121.117C135.877 121.027 135.805 120.955 135.716 120.955C135.627 120.955 135.554 121.027 135.554 121.117C135.554 121.206 135.627 121.278 135.716 121.278Z" fill="white"/>
<path d="M159.218 10.1402C158.651 13.1882 157.721 16.1573 156.447 18.9842C149.156 34.4094 169.921 29.3816 177.342 29.3816C185.455 29.3816 193.218 33.648 192.032 14.6908C191.526 6.59311 185.455 3.8147e-06 177.342 3.8147e-06C170.411 3.8147e-06 160.668 3.08037 159.218 10.1402Z" fill="#2F2E41"/>
<path d="M184.904 236.373H177.992L174.702 209.71H184.904V236.373Z" fill="#FFB6B6"/>
<path d="M188.553 248.35H183.596L182.711 243.67L180.445 248.35H167.296C166.666 248.35 166.052 248.149 165.545 247.776C165.037 247.402 164.662 246.876 164.475 246.274C164.287 245.673 164.297 245.027 164.502 244.431C164.708 243.835 165.098 243.321 165.617 242.963L176.117 235.711V230.979L187.161 231.639L188.553 248.35Z" fill="#2F2E41"/>
<path d="M225.973 227.649L220.426 231.774L201.876 212.342L210.063 206.253L225.973 227.649Z" fill="#FFB6B6"/>
<path d="M236.048 235.083L232.07 238.041L228.567 234.814L229.541 239.922L218.99 247.767C218.485 248.144 217.872 248.348 217.242 248.351C216.611 248.355 215.997 248.156 215.487 247.785C214.978 247.415 214.6 246.89 214.409 246.29C214.219 245.689 214.225 245.043 214.428 244.446L218.526 232.362L215.703 228.565L224.958 222.504L236.048 235.083Z" fill="#2F2E41"/>
<path d="M162.264 113.66L195.079 108.549L188.553 88.9177H162.264V113.66Z" fill="#FFB6B6"/>
<path d="M192.953 98.8051C192.953 98.8051 206.068 110.137 200.017 142.44L192.629 174.092L212.757 209.037L202.523 214.62L177.718 180.145L166.367 153.52L160.363 106.857L192.953 98.8051Z" fill="#2F2E41"/>
<path d="M172.624 161.107L171.835 173.325L174.144 209.503L185.609 213.45L187.78 176.382L172.624 161.107Z" fill="#2F2E41"/>
<path d="M169.099 33.4476L181.783 33.9425L186.838 42.334L198.372 44.5855L191.487 79.4182L192.753 99.2446L181.268 99.1745C172.992 99.1241 164.988 102.131 158.792 107.619L159.135 81.8825L154.195 62.6707L155.305 42.526L164.584 41.3662L169.099 33.4476Z" fill="#E6E6E6"/>
<path d="M176.126 29.3779C182.719 29.3779 188.064 24.0331 188.064 17.44C188.064 10.8469 182.719 5.50209 176.126 5.50209C169.533 5.50209 164.188 10.8469 164.188 17.44C164.188 24.0331 169.533 29.3779 176.126 29.3779Z" fill="#FFB6B6"/>
<path d="M168.019 5.27095C170.111 3.99566 172.507 3.3058 174.957 3.2735C177.406 3.2412 179.82 3.86766 181.945 5.08737C184.07 6.30707 185.828 8.07522 187.035 10.2069C188.243 12.3387 188.855 14.7557 188.809 17.2052C182.726 18.7325 176.335 19.9012 169.848 17.5705L168.316 13.8211L167.413 17.5733C165.438 18.3808 163.457 19.064 161.476 17.5655C161.396 15.1228 161.957 12.7018 163.105 10.5443C164.254 8.38675 165.948 6.5684 168.019 5.27095Z" fill="#2F2E41"/>
<path d="M196.164 123.313L197.773 137.917C197.885 138.282 198.111 138.601 198.418 138.827C198.725 139.054 199.096 139.176 199.477 139.176H206.895C207.277 139.176 207.648 139.054 207.954 138.827C208.261 138.601 208.487 138.282 208.599 137.917L209.932 126.724C210.317 126.912 210.741 127.007 211.169 127C211.598 126.993 212.018 126.884 212.397 126.682C212.775 126.481 213.1 126.193 213.345 125.841C213.59 125.49 213.748 125.085 213.806 124.661C213.864 124.236 213.821 123.804 213.68 123.399C213.538 122.995 213.303 122.63 212.993 122.334C212.683 122.038 212.307 121.82 211.896 121.698C211.485 121.576 211.052 121.553 210.63 121.631C210.464 121.435 210.257 121.277 210.023 121.169C209.789 121.061 209.535 121.005 209.278 121.006H197.868C197.589 121.006 197.314 121.071 197.065 121.197C196.816 121.323 196.6 121.505 196.434 121.729C196.268 121.954 196.158 122.214 196.111 122.489C196.064 122.764 196.082 123.046 196.164 123.313ZM210.165 125.967L210.982 123.313C211.076 123.007 211.085 122.68 211.008 122.369C211.043 122.367 211.076 122.359 211.112 122.359C211.624 122.359 212.116 122.562 212.478 122.925C212.841 123.287 213.045 123.779 213.045 124.292C213.045 124.804 212.841 125.296 212.478 125.659C212.116 126.021 211.624 126.225 211.112 126.225C210.779 126.223 210.453 126.134 210.165 125.967Z" fill="#047E4B"/>
<path d="M207.35 139.186C206.882 138.715 206.522 138.148 206.297 137.523C206.072 136.899 205.987 136.233 206.047 135.572C206.107 134.911 206.311 134.271 206.646 133.697C206.98 133.124 207.436 132.63 207.981 132.252L200.752 96.343L208.736 98.9064L214.522 133.639C215.097 134.598 215.3 135.734 215.093 136.832C214.886 137.931 214.284 138.915 213.4 139.598C212.516 140.282 211.412 140.618 210.297 140.542C209.181 140.466 208.133 139.983 207.35 139.186Z" fill="#FFB6B6"/>
<path d="M193.419 48.3248L198.372 44.5856C198.372 44.5856 202.742 44.2761 203.516 52.1565C204.29 60.0369 209.135 90.2817 209.135 90.2817L216.715 125.389L206.223 127.692L198.104 89.8051L189.977 63.667L193.419 48.3248Z" fill="#E6E6E6"/>
<path d="M150.666 81.0129C152.215 81.0129 153.47 79.7574 153.47 78.2088C153.47 76.6602 152.215 75.4048 150.666 75.4048C149.118 75.4048 147.862 76.6602 147.862 78.2088C147.862 79.7574 149.118 81.0129 150.666 81.0129Z" fill="#047E4B"/>
<path d="M61.2504 268.902L67.094 268.902L69.8742 246.362L61.2494 246.362L61.2504 268.902Z" fill="#FFB6B6"/>
<path d="M59.7598 266.994L61.4046 266.994L67.8263 264.382L71.2681 266.994C73.2131 266.994 75.0789 267.766 76.4543 269.142C77.8296 270.517 78.6023 272.382 78.6025 274.327V274.566L59.7602 274.566L59.7598 266.994Z" fill="#2F2E41"/>
<path d="M83.8956 265.219L89.596 266.507L97.2726 245.133L88.8595 243.233L83.8956 265.219Z" fill="#FFB6B6"/>
<path d="M82.8619 263.03L84.4664 263.392L91.3055 262.259L94.0876 265.565L94.0881 265.565C95.9853 265.993 97.6346 267.158 98.6732 268.802C99.7119 270.447 100.055 272.437 99.6264 274.334L99.5739 274.566L81.1943 270.417L82.8619 263.03Z" fill="#2F2E41"/>
<path d="M50.5524 152.961L55.8367 212.165C55.8367 212.165 53.8567 247.709 60.2457 260.216H69.5114L74.099 208.919L74.6751 174.488L94.5399 203.536L81.8874 259.378L93.2913 260.397L113.823 199.796L91.2663 142.907L50.5524 152.961Z" fill="#2F2E41"/>
<path d="M56.0867 58.6794C63.6131 58.6794 69.7145 52.578 69.7145 45.0516C69.7145 37.5252 63.6131 31.4238 56.0867 31.4238C48.5603 31.4238 42.4589 37.5252 42.4589 45.0516C42.4589 52.578 48.5603 58.6794 56.0867 58.6794Z" fill="#FFB8B8"/>
<path d="M80.0433 71.666L68.8632 66.869L63.4207 61.0962L49.8245 63.289L46.2171 69.4743L34.5394 80.3327L48.2211 142.195L47.807 155.706C47.807 155.706 56.5637 159.649 94.5399 150.572C94.9953 150.463 94.042 149.987 94.042 149.987L80.0433 71.666Z" fill="#3F3D56"/>
<path d="M41.9159 52.7843C41.821 52.6547 41.7269 52.5241 41.6338 52.3923C41.5963 52.4714 41.5666 52.5532 41.5237 52.6304L41.9159 52.7843Z" fill="#2F2E41"/>
<path d="M69.6428 35.0834C68.7319 33.099 67.1077 31.5299 65.093 30.688C63.0961 29.8826 60.8643 29.8845 58.8688 30.6935C57.0672 29.5552 55.0654 28.6528 52.9573 28.541C50.8491 28.4293 48.6202 29.2114 47.321 30.933C47.0309 31.3875 46.7014 31.8155 46.3363 32.2123C45.292 33.1794 43.705 33.0399 42.3169 32.8421C42.9395 33.3757 43.5622 33.9093 44.1851 34.4429C43.4315 34.6397 42.6778 34.8366 41.9241 35.0335C42.8036 35.5669 43.683 36.1003 44.5624 36.6337C42.0092 38.1662 40.8488 41.5109 41.1553 44.5487C41.4453 47.4248 42.8339 50.0547 44.4937 52.3923C45.1559 50.995 45.0132 49.323 45.0023 47.7493C44.9909 46.0864 45.285 44.1982 46.6175 43.2689C47.5163 42.642 48.6721 42.614 49.756 42.6199C55.2232 42.65 60.6843 42.9909 66.1128 43.6411C66.8495 43.673 67.5677 43.8813 68.207 44.2485C69.4075 45.0675 69.6414 46.7576 69.762 48.2404C70.3962 45.7921 70.7066 43.2712 70.6852 40.7423C70.7386 38.8037 70.3834 36.8757 69.6428 35.0834Z" fill="#2F2E41"/>
<path d="M73.8856 194.464C85.7317 194.464 95.3348 184.86 95.3348 173.014C95.3348 161.168 85.7317 151.565 73.8856 151.565C62.0395 151.565 52.4364 161.168 52.4364 173.014C52.4364 184.86 62.0395 194.464 73.8856 194.464Z" fill="white"/>
<path d="M73.8856 151.088C72.783 151.089 71.682 151.171 70.5919 151.336C70.0342 151.417 69.491 151.522 68.9522 151.651C64.9952 152.563 61.3694 154.557 58.4795 157.409C55.5895 160.262 53.5489 163.862 52.5855 167.806C51.622 171.751 51.7736 175.886 53.0232 179.75C54.2728 183.613 56.5714 187.054 59.6625 189.687C60.0295 189.997 60.4012 190.298 60.7873 190.584C63.57 192.658 66.8056 194.043 70.2278 194.623C73.6501 195.202 77.1611 194.961 80.472 193.919C83.7828 192.877 86.7989 191.064 89.272 188.628C91.7451 186.193 93.6044 183.205 94.697 179.91C95.7897 176.615 96.0843 173.108 95.5568 169.678C95.0292 166.247 93.6945 162.991 91.6625 160.177C89.6305 157.363 86.9593 155.071 83.8688 153.491C80.7782 151.911 77.3566 151.088 73.8856 151.088ZM73.8856 193.987C69.4261 193.992 65.0826 192.567 61.4927 189.921C61.1019 189.635 60.7254 189.34 60.3583 189.025C57.3468 186.485 55.1122 183.147 53.911 179.394C52.7097 175.642 52.5904 171.627 53.5667 167.81C54.543 163.993 56.5754 160.528 59.4307 157.814C62.2861 155.099 65.8488 153.244 69.7103 152.461C70.2439 152.352 70.7778 152.266 71.3213 152.199C72.172 152.094 73.0284 152.041 73.8856 152.042C79.4479 152.042 84.7823 154.251 88.7154 158.184C92.6485 162.118 94.8582 167.452 94.8582 173.014C94.8582 178.577 92.6485 183.911 88.7154 187.844C84.7823 191.777 79.4479 193.987 73.8856 193.987Z" fill="#3F3D56"/>
<path d="M63.365 168.724H84.4061C85.177 168.724 85.8018 168.1 85.8018 167.329V167.26C85.8018 166.489 85.177 165.865 84.4061 165.865H63.365C62.5942 165.865 61.9694 166.489 61.9694 167.26V167.329C61.9694 168.1 62.5942 168.724 63.365 168.724Z" fill="#047E4B"/>
<path d="M63.365 174.444H84.4061C85.177 174.444 85.8018 173.819 85.8018 173.049V172.98C85.8018 172.209 85.177 171.584 84.4061 171.584H63.365C62.5942 171.584 61.9694 172.209 61.9694 172.98V173.049C61.9694 173.819 62.5942 174.444 63.365 174.444Z" fill="#047E4B"/>
<path d="M63.365 180.164H84.4061C85.177 180.164 85.8018 179.539 85.8018 178.768V178.7C85.8018 177.929 85.177 177.304 84.4061 177.304H63.365C62.5942 177.304 61.9694 177.929 61.9694 178.7V178.768C61.9694 179.539 62.5942 180.164 63.365 180.164Z" fill="#047E4B"/>
<path d="M313.855 268.174L307.728 268.174L304.813 244.54L313.856 244.54L313.855 268.174Z" fill="#9E616A"/>
<path d="M284.867 268.174L278.74 268.174L275.825 244.54L284.868 244.54L284.867 268.174Z" fill="#9E616A"/>
<path d="M285.083 274.566L266.24 274.566V274.327C266.24 272.382 267.013 270.517 268.388 269.142C269.764 267.766 271.629 266.994 273.574 266.994H273.575L277.016 264.382L283.438 266.994L285.083 266.994L285.083 274.566Z" fill="#2F2E41"/>
<path d="M314.857 274.566L296.015 274.566V274.327C296.015 272.382 296.787 270.517 298.163 269.142C299.538 267.766 301.404 266.994 303.349 266.994H303.349L306.791 264.382L313.212 266.994L314.857 266.994L314.857 274.566Z" fill="#2F2E41"/>
<path d="M278.856 128.299L269.544 185.002L272.078 193.452L268.753 199.436L273.636 251.993L271.654 256.357L277.193 259.773H288.463L289.062 212.193L291.846 205.208V201.358L297.513 172.345L298.556 212.975L300.205 219.972L298.82 224.954L300.63 228.444L305.436 260.81H318.074L317.096 253.28C318.197 252.723 319.082 251.815 319.611 250.7C320.139 249.586 320.283 248.327 320.018 247.122L319.294 243.821L320.943 234.062L323.946 179.62L323.099 135.692L308.315 124.387L278.856 128.299Z" fill="#2F2E41"/>
<path d="M300.205 55.4849C306.69 55.4849 311.947 50.2279 311.947 43.7432C311.947 37.2584 306.69 32.0015 300.205 32.0015C293.72 32.0015 288.463 37.2584 288.463 43.7432C288.463 50.2279 293.72 55.4849 300.205 55.4849Z" fill="#9E616A"/>
<path d="M274.551 150.8C275.062 150.272 275.451 149.639 275.69 148.944C275.93 148.25 276.015 147.511 275.938 146.78C275.861 146.05 275.625 145.345 275.246 144.715C274.868 144.085 274.356 143.546 273.746 143.136L278.312 125.869L269.515 128.828L266.528 144.771C265.907 145.841 265.699 147.101 265.945 148.314C266.191 149.526 266.873 150.606 267.861 151.349C268.85 152.092 270.078 152.447 271.31 152.346C272.543 152.245 273.696 151.695 274.551 150.8Z" fill="#9E616A"/>
<path d="M279.356 67.8999L277.468 67.5081L275.857 68.3997C275.857 68.3997 271.359 74.3973 271.359 79.895C271.359 85.3928 265.861 138.371 265.861 138.371L275.857 142.869L283.854 101.386L279.356 67.8999Z" fill="#E6E6E6"/>
<path d="M310.488 35.1344C310.488 35.1344 313.559 29.2635 306.802 28.7298C306.802 28.7298 301.042 23.5049 295.172 27.7746C295.172 27.7746 291.969 27.7746 290.218 31.3984C290.218 31.3984 287.7 30.4432 287.146 32.9995C287.146 32.9995 285.303 38.3367 287.146 43.1401C288.989 47.9435 289.601 48.4772 289.601 48.4772C289.601 48.4772 286.573 38.4066 293.944 37.8729C301.315 37.3392 309.564 32.7327 310.178 38.6035C310.792 44.4744 311.717 45.9209 311.717 45.9209C311.717 45.9209 317.551 37.5361 310.488 35.1344Z" fill="#2F2E41"/>
<path d="M353.379 199.436C352.493 199.438 351.638 199.111 350.977 198.52L315.443 166.889C314.727 166.25 314.294 165.353 314.238 164.395C314.182 163.437 314.509 162.496 315.146 161.779L337.91 136.206C338.549 135.49 339.445 135.057 340.403 135.001C341.362 134.945 342.303 135.272 343.02 135.909L378.555 167.541C379.271 168.179 379.706 169.076 379.761 170.034C379.817 170.992 379.49 171.934 378.851 172.651L356.088 198.223C355.773 198.579 355.39 198.869 354.962 199.076C354.534 199.284 354.069 199.404 353.594 199.43C353.522 199.435 353.451 199.436 353.379 199.436Z" fill="white"/>
<path d="M353.379 199.669C352.436 199.67 351.525 199.323 350.823 198.694L315.288 167.063C314.526 166.383 314.065 165.428 314.006 164.409C313.947 163.389 314.294 162.388 314.972 161.624L337.736 136.051C338.416 135.29 339.37 134.828 340.39 134.769C341.41 134.71 342.411 135.057 343.175 135.735L378.709 167.367C379.472 168.046 379.934 169.001 379.993 170.021C380.053 171.041 379.704 172.042 379.025 172.806L356.261 198.378C355.926 198.757 355.519 199.065 355.063 199.286C354.608 199.507 354.113 199.635 353.608 199.663C353.531 199.667 353.455 199.669 353.379 199.669ZM340.615 135.692C340.202 135.691 339.794 135.778 339.418 135.947C339.042 136.115 338.705 136.362 338.431 136.67L315.668 162.243C315.153 162.822 314.889 163.581 314.934 164.355C314.979 165.128 315.329 165.852 315.907 166.368L351.441 197.999C351.728 198.254 352.062 198.45 352.424 198.576C352.787 198.702 353.171 198.756 353.554 198.734C353.937 198.711 354.312 198.614 354.657 198.447C355.002 198.279 355.311 198.046 355.566 197.759L378.33 172.187C378.845 171.608 379.109 170.848 379.065 170.075C379.02 169.301 378.669 168.577 378.09 168.062L342.556 136.43C342.022 135.954 341.331 135.691 340.615 135.692Z" fill="#3F3D56"/>
<path d="M366.265 175.218C365.881 175.219 365.51 175.078 365.224 174.822L337.331 149.993C337.177 149.856 337.051 149.691 336.961 149.505C336.87 149.32 336.818 149.119 336.805 148.913C336.793 148.707 336.821 148.501 336.889 148.306C336.957 148.112 337.062 147.932 337.199 147.778C337.336 147.624 337.502 147.499 337.688 147.409C337.873 147.319 338.075 147.267 338.28 147.256C338.486 147.244 338.692 147.273 338.887 147.341C339.081 147.41 339.26 147.515 339.414 147.653L367.307 172.482C367.544 172.694 367.712 172.972 367.787 173.28C367.863 173.589 367.843 173.913 367.729 174.21C367.616 174.507 367.416 174.762 367.154 174.942C366.892 175.122 366.582 175.218 366.265 175.218Z" fill="#047E4B"/>
<path d="M360.944 181.195C360.561 181.195 360.19 181.054 359.904 180.799L332.011 155.969C331.857 155.833 331.732 155.667 331.642 155.482C331.553 155.297 331.501 155.096 331.489 154.89C331.477 154.685 331.506 154.479 331.573 154.285C331.641 154.091 331.746 153.912 331.883 153.758C332.019 153.605 332.185 153.479 332.37 153.39C332.555 153.3 332.756 153.248 332.962 153.236C333.167 153.224 333.373 153.253 333.567 153.321C333.761 153.388 333.94 153.493 334.094 153.63L361.987 178.46C362.224 178.671 362.392 178.949 362.467 179.257C362.542 179.566 362.522 179.89 362.409 180.187C362.296 180.483 362.095 180.739 361.834 180.919C361.572 181.099 361.262 181.195 360.944 181.195Z" fill="#047E4B"/>
<path d="M355.624 187.172C355.24 187.173 354.87 187.032 354.583 186.776L326.69 161.947C326.536 161.81 326.411 161.644 326.321 161.459C326.231 161.274 326.179 161.073 326.167 160.867C326.155 160.662 326.183 160.456 326.251 160.262C326.318 160.067 326.424 159.888 326.56 159.734C326.697 159.581 326.863 159.455 327.048 159.366C327.234 159.276 327.435 159.224 327.64 159.212C327.846 159.2 328.052 159.229 328.246 159.297C328.44 159.365 328.62 159.47 328.773 159.607L356.666 184.437C356.903 184.648 357.071 184.926 357.146 185.234C357.222 185.543 357.202 185.867 357.089 186.164C356.976 186.46 356.775 186.716 356.513 186.896C356.252 187.076 355.942 187.172 355.624 187.172Z" fill="#047E4B"/>
<path d="M323.726 151.819C323.368 151.178 323.155 150.465 323.102 149.733C323.049 149 323.158 148.264 323.42 147.578C323.682 146.891 324.092 146.271 324.62 145.76C325.147 145.249 325.781 144.86 326.476 144.62L326.506 126.76L334.245 131.883L333.03 148.057C333.355 149.251 333.232 150.522 332.682 151.631C332.133 152.739 331.196 153.607 330.049 154.071C328.902 154.535 327.625 154.562 326.46 154.147C325.294 153.732 324.322 152.904 323.726 151.819Z" fill="#9E616A"/>
<path d="M324.441 72.7942L327.899 69.4615L330.439 71.2948C330.439 71.2948 332.938 74.2935 334.937 83.2899C336.936 92.2862 334.937 141.766 334.937 141.766L323.942 140.267L325.441 114.277L320.943 92.2862L324.441 72.7942Z" fill="#E6E6E6"/>
<path d="M329.547 70.2744L317.898 64.7101L309.989 57.3744L295.567 57.2665L290.915 63.3144L278.633 67.4864L280.68 109.837L279.284 113.093C279.284 113.093 280.257 113.972 280.701 114.463C281.145 114.954 280.087 119.067 280.087 119.067L279.491 123.542L281.145 124.724L278.994 127.265L278.46 131.27C278.46 131.27 316.011 121.937 323.106 137.399C323.481 138.215 322.558 130.232 322.558 130.232L321.634 124.387L322.55 119.141L323.946 117.746L321.605 115.405L323.106 104.298L329.547 70.2744Z" fill="#3F3D56"/>
<path d="M65.3745 164.162C65.6635 163.428 65.7882 162.639 65.7396 161.852C65.691 161.064 65.4703 160.297 65.0931 159.604C64.716 158.911 64.1915 158.31 63.5565 157.841C62.9216 157.373 62.1918 157.05 61.4184 156.894L58.8307 137.892L51.3278 144.451L54.9354 161.49C54.76 162.806 55.0736 164.141 55.8169 165.242C56.5601 166.343 57.6814 167.133 58.9681 167.462C60.2548 167.792 61.6177 167.638 62.7984 167.029C63.9792 166.421 64.8957 165.401 65.3745 164.162Z" fill="#FFB8B8"/>
<path d="M35.9792 79.9852L33.9456 80.3748L32.7163 81.9224C32.7163 81.9224 30.7277 89.7225 32.9931 95.1736C35.2584 100.625 51.6374 155.419 51.6374 155.419L63.402 155.76L54.2375 111.334L35.9792 79.9852Z" fill="#3F3D56"/>
<path d="M82.3583 161.374C81.8164 160.801 81.4067 160.116 81.1583 159.367C80.9098 158.618 80.8285 157.824 80.9201 157.041C81.0117 156.257 81.274 155.503 81.6885 154.832C82.1031 154.161 82.6597 153.588 83.3193 153.156L78.6356 134.56L88.0428 137.848L91.0483 155.003C91.702 156.159 91.9088 157.515 91.6296 158.813C91.3504 160.112 90.6045 161.263 89.5334 162.048C88.4622 162.834 87.1402 163.199 85.8178 163.075C84.4954 162.95 83.2645 162.345 82.3583 161.374Z" fill="#FFB8B8"/>
<path d="M78.2482 72.3077L80.2804 71.9109L81.9981 72.8886C81.9981 72.8886 86.7516 79.3848 86.6821 85.2874C86.6125 91.1901 91.8449 148.14 91.8449 148.14L81.0559 152.843L72.9951 108.203L78.2482 72.3077Z" fill="#3F3D56"/>
</g>
<defs>
<clipPath id="clip0_6_5">
<rect width="406" height="274.566" fill="white" transform="translate(-26)"/>
</clipPath>
</defs>
</svg>
