<svg width="71" height="41" viewBox="0 0 71 41" fill="none" xmlns="http://www.w3.org/2000/svg">
<path d="M58.2 9.75656C58.2 12.5566 56.16 15.6366 52.12 18.9966C49.8 20.9166 48.24 21.8766 47.44 21.8766C46.4 21.6366 45.8 20.5166 45.64 18.5166L46.56 18.1966C46.76 18.1166 47.48 17.7166 48.68 16.9566C51.08 15.4366 52.76 13.8366 53.8 12.0766C54.24 11.3166 54.48 10.6766 54.48 10.1966C54.48 9.07656 53.72 8.47656 52.2 8.47656C47.76 8.47656 43.24 8.99656 38.68 9.95656C38.6 9.95656 36.36 10.5566 31.96 11.6766C30.52 11.6766 29.84 10.7966 29.84 9.03656V8.27656C38.52 6.51656 45.84 5.59656 51.84 5.59656C54.68 5.59656 56.6 6.39656 57.64 7.99656C58 8.63656 58.2 9.19656 58.2 9.75656ZM43.64 20.7566C43.64 20.9166 43.56 21.0366 43.44 21.1966C43.32 21.3566 43.2 21.5966 43.04 21.9166C42.4 23.4366 41.76 25.3166 41.12 27.5566L39.12 34.2766L38.4 37.3166C37.96 38.7166 37.4 39.4366 36.72 39.4366C36.2 39.4366 35.68 39.0766 35.12 38.3566C34.56 37.5966 34.32 36.9566 34.32 36.4766C34.32 36.2366 34.36 36.0366 34.44 35.8766C34.52 35.6766 34.64 35.3566 34.88 34.9566C35.28 33.8366 35.76 32.3966 36.32 30.5966L39.16 20.9966C39.24 20.7566 39.28 20.5166 39.36 20.2766L39.52 19.7566C39.72 19.0766 40.16 18.7166 40.8 18.7166C41.36 18.7166 41.92 18.9166 42.56 19.3166C43.28 19.7566 43.64 20.2366 43.64 20.7566Z" fill="#047E4B"/>
<path d="M2.75977 4.59671C3.11973 4.59671 3.5601 4.71614 4.04004 4.95609C4.52004 5.19608 4.75977 5.51698 4.75977 5.87698C4.75966 6.19705 4.6404 6.75698 4.48047 7.51663C4.28052 8.31644 4.16021 8.87628 4.16016 9.19632C4.08016 10.1563 4.04004 11.3569 4.04004 12.7969L4 15.9561L4.16016 16.1162C6.48012 17.3162 9.91965 19.1969 14.5195 21.7168L19.1201 24.4366L20.2002 24.877C20.5999 24.9969 20.8397 25.1165 20.8398 25.2764C20.8398 26.6764 20.4798 27.5962 19.7598 28.0762C19.3999 28.2361 18.9603 28.3164 18.4805 28.3164C18.0805 28.3164 17.5599 28.1167 16.9199 27.6367C15.3199 26.0768 11.6799 23.7568 5.95996 20.7168C5.47997 20.4768 4.79989 20.1969 3.91992 19.7969L3.7998 26.5967C3.79981 29.7166 3.92017 32.6365 4.16016 35.2764C4.20015 35.9162 4.31962 36.5164 4.51953 37.1162C4.55952 37.2362 4.6399 37.5164 4.7998 37.9961C4.9198 38.3161 5 38.597 5 38.877C4.99981 39.7166 4.43994 40.1562 3.36035 40.1563C1.40035 40.1563 0.44043 39.1162 0.44043 37.0362V33.877C0.44043 33.317 0.440476 32.2767 0.480469 30.7569C0.480469 29.2769 0.519531 28.0762 0.519531 27.1162V15.1563C0.519528 12.5968 0.480362 10.8371 0.400391 9.87698L0.240234 8.03616C0.0803892 7.51662 9.54684e-05 7.11699 0 6.87698C0 6.47698 0.320039 5.95651 1.04004 5.39651C1.71991 4.87662 2.27983 4.5968 2.75977 4.59671Z" fill="#047E4B"/>
<path d="M15.96 6.71683C16.6 6.71683 17.4405 7.27648 18.4805 8.35648C19.5201 9.47611 20.0398 10.3162 20.04 10.9561C20.04 11.3561 19.8395 11.7161 19.5195 11.9561C19.1997 12.196 18.8402 12.3164 18.4404 12.3164C18.3604 12.3164 18.2802 12.2362 18.2402 12.0362C18.1601 11.876 17.88 11.4763 17.4004 10.7969C16.9604 10.2369 16.4399 9.7564 15.8799 9.2764L14.7598 8.63675C14.6399 8.5967 14.5996 8.47626 14.5996 8.23636C14.5997 7.2365 15.04 6.71684 15.96 6.71683Z" fill="#047E4B"/>
<path d="M20.0801 4.43655C20.6401 4.4366 21.4004 4.95621 22.3604 5.99612C23.3203 7.0361 23.7998 7.83652 23.7998 8.39651C23.7998 8.79643 23.6002 9.11649 23.2803 9.35648C22.9203 9.63642 22.5601 9.75682 22.2002 9.75687C22.0802 9.75687 22 9.67659 21.96 9.51663C21.72 8.91663 21.2796 8.23663 20.5596 7.51663C20.0396 7.03671 19.4798 6.63648 18.8799 6.39651C18.76 6.31649 18.7197 6.15603 18.7197 5.95609C18.7198 5.55639 18.8404 5.23683 19.1201 4.91702C19.3601 4.59702 19.6801 4.43655 20.0801 4.43655Z" fill="#047E4B"/>
<path d="M64.3653 1.18769C64.8798 -0.395898 67.1202 -0.395898 67.6347 1.18769C67.8648 1.8959 68.5248 2.37539 69.2694 2.37539C70.9345 2.37539 71.6268 4.5061 70.2798 5.48481C69.6773 5.9225 69.4252 6.69834 69.6554 7.40654C70.1699 8.99013 68.3574 10.307 67.0103 9.32827C66.4079 8.89058 65.5921 8.89058 64.9897 9.32827C63.6426 10.307 61.8301 8.99013 62.3447 7.40654C62.5748 6.69834 62.3227 5.9225 61.7203 5.48481C60.3732 4.5061 61.0655 2.37539 62.7306 2.37539C63.4752 2.37539 64.1352 1.8959 64.3653 1.18769Z" fill="#047E4B"/>
</svg>
